<?xml version="1.0" encoding="UTF-8"?>
<svg width="239px" height="40px" viewBox="0 0 239 40" version="1.1" xmlns="http://www.w3.org/2000/svg" xmlns:xlink="http://www.w3.org/1999/xlink">
    <!-- Generator: Sketch 52.4 (67378) - http://www.bohemiancoding.com/sketch -->
    <title>Group</title>
    <desc>Created with Sketch.</desc>
    <g id="Page-1" stroke="none" stroke-width="1" fill="none" fill-rule="evenodd">
        <g id="BitValve---01" transform="translate(-135.000000, -38.000000)" fill="#000000">
            <g id="Group" transform="translate(135.000000, 38.000000)">
                <path d="M63.131386,22.224084 C63.131386,20.0631971 61.8111449,19.0429751 59.1678446,19.0429751 L53.4261341,19.0429751 L53.4261341,25.8061968 L59.4468283,25.8061968 C61.9337286,25.8061968 63.131386,24.6641149 63.131386,22.224084 Z M53.4261341,16.2926266 L58.9240861,16.2926266 C61.1968171,16.2926266 62.2718907,15.2128916 62.2718907,12.8961375 C62.2718907,10.827354 61.1362297,9.86947889 59.0156716,9.86947889 L53.4261341,9.86947889 L53.4261341,16.2926266 Z M66.5707763,22.562741 C66.5707763,26.2695476 63.9007048,28.6486486 59.9681615,28.6486486 L50.2009132,28.6486486 L50.2009132,7.02702703 L59.2918373,7.02702703 C63.2229716,7.02702703 65.711281,9.19074786 65.711281,12.4639601 C65.711281,14.9960945 64.2374579,16.7871509 61.1052315,17.5296458 C65.0039586,18.0241701 66.5707763,20.0915366 66.5707763,22.562741 Z" id="Fill-1"></path>
                <path d="M70.4060809,28.6486486 L73.5857724,28.6486486 L73.5857724,13.3866094 L70.4060809,13.3866094 L70.4060809,28.6486486 Z M69.8456316,8.04350997 C69.8141778,6.67673842 70.6248276,5.94594595 72.0273804,5.94594595 C73.3999091,5.94594595 74.1791051,6.67673842 74.2091292,8.04350997 C74.240583,9.44383088 73.461387,10.2388047 72.0273804,10.2388047 C70.6562814,10.2388047 69.8770854,9.44383088 69.8456316,8.04350997 Z" id="Fill-3"></path>
                <path d="M81.6487799,16.5760097 L81.6487799,25.8237736 L85.7441146,25.8237736 L85.7441146,28.6486486 L82.6184634,28.6486486 C80.1167949,28.6486486 78.4585788,27.0012795 78.4585788,24.519547 L78.4585788,16.5760097 L75.3013699,16.5760097 L75.3013699,13.7511346 L78.4585788,13.7511346 L78.4585788,9.18918919 L81.6487799,9.18918919 L81.6487799,13.7511346 L86.2146119,13.7511346 L86.2146119,16.5760097 L81.6487799,16.5760097 Z" id="Fill-5"></path>
                <polygon id="Fill-6" points="108.041096 7.02702703 99.9881689 28.6486486 95.422856 28.6486486 87.3059361 7.02702703 91.1426024 7.02702703 95.9929747 20.7093377 97.6742432 26.0244109 99.3220608 20.7405111 104.202975 7.02702703"></polygon>
                <path d="M119.258849,21.0810811 C119.258849,17.842401 117.78676,16.327221 114.664191,16.327221 C111.543026,16.327221 110.101839,17.842401 110.101839,21.0810811 C110.101839,24.3197611 111.543026,25.8349412 114.664191,25.8349412 C117.78676,25.8349412 119.258849,24.3197611 119.258849,21.0810811 Z M122.228311,13.8162718 L122.228311,28.3458904 L119.105741,28.3458904 L119.105741,25.3488614 C118.095787,27.4390044 116.255676,28.6486486 113.807345,28.6486486 C109.582113,28.6486486 106.949772,25.6224549 106.949772,21.0810811 C106.949772,16.5383185 109.552616,13.5135135 113.683735,13.5135135 C116.195275,13.5135135 118.095787,14.7231577 119.105741,16.8730191 L119.105741,13.8162718 L122.228311,13.8162718 Z" id="Fill-7"></path>
                <polygon id="Fill-8" points="127.684932 28.6486486 130.958904 28.6486486 130.958904 7.02702703 127.684932 7.02702703"></polygon>
                <polygon id="Fill-9" points="148.420091 13.5135135 142.720369 28.6486486 138.871874 28.6486486 133.141553 13.5135135 136.567228 13.5135135 140.810725 26.3153816 145.025015 13.5135135"></polygon>
                <path d="M153.819183,19.7792012 L161.663481,19.7792012 C161.542584,16.994914 160.408112,15.9339687 157.865042,15.9339687 C155.411941,15.9339687 154.096123,17.1462792 153.819183,19.7792012 M164.759027,22.0496797 L153.789662,22.0496797 C154.003341,24.9853322 155.260116,26.1351525 158.018273,26.1351525 C160.070723,26.1351525 160.959181,25.6213439 161.635366,23.8646739 L164.452565,24.8964572 C163.410876,27.4391154 160.991515,28.6486486 157.987345,28.6486486 C153.514127,28.6486486 150.60274,25.6824455 150.60274,21.1109375 C150.60274,16.5713691 153.605503,13.5135135 157.834114,13.5135135 C161.939016,13.5135135 164.789954,16.3283515 164.789954,20.7790449 C164.789954,21.231752 164.789954,21.4747696 164.759027,22.0496797" id="Fill-10"></path>
                <path d="M169.883358,25.2573667 L170.500092,25.2573667 C170.708791,25.2573667 170.799763,25.1192857 170.799763,24.9320798 C170.799763,24.775411 170.708791,24.6452962 170.480024,24.6452962 L169.883358,24.6452962 L169.883358,25.2573667 Z M170.917491,25.8800588 L171.337565,26.4615921 L170.748926,26.4615921 L170.311459,25.6822312 L169.883358,25.6822312 L169.883358,26.4615921 L169.424487,26.4615921 L169.424487,24.2403472 L170.401093,24.2403472 C170.917491,24.2403472 171.266661,24.5085429 171.266661,24.9320798 C171.266661,25.3078193 171.037894,25.5733597 170.669994,25.6530218 L170.917491,25.8800588 Z M172.031892,25.4153632 C172.031892,24.3200093 171.385727,23.5990673 170.251258,23.5990673 C169.119465,23.5990673 168.470623,24.3200093 168.470623,25.4259848 C168.470623,26.5120447 169.146221,27.2236928 170.251258,27.2236928 C171.365659,27.2236928 172.031892,26.4921292 172.031892,25.4153632 Z M172.429224,25.4153632 C172.429224,26.6408318 171.464658,27.5675676 170.251258,27.5675676 C169.03652,27.5675676 168.063927,26.6408318 168.063927,25.4259848 C168.063927,24.2217594 169.025817,23.2432432 170.251258,23.2432432 C171.484725,23.2432432 172.429224,24.2217594 172.429224,25.4153632 Z" id="Fill-11"></path>
                <path d="M190.302558,15.3678508 C190.302558,14.9201502 190.162597,14.5980422 189.882676,14.3970941 C189.599809,14.196146 189.227071,14.095672 188.757099,14.095672 L187.295615,14.095672 L187.295615,16.638552 L188.757099,16.638552 C189.227071,16.638552 189.599809,16.5395555 189.882676,16.3386074 C190.162597,16.1391369 190.302558,15.8155513 190.302558,15.3678508 M190.981735,15.3678508 C190.981735,15.994336 190.78579,16.4582897 190.396847,16.7641446 C190.007904,17.0685218 189.461321,17.2207105 188.757099,17.2207105 L187.295615,17.2207105 L187.295615,20 L186.616438,20 L186.616438,13.5135135 L188.746786,13.5135135 C189.456901,13.5135135 190.007904,13.6701348 190.396847,13.9804223 C190.78579,14.2892323 190.981735,14.7517084 190.981735,15.3678508" id="Fill-12"></path>
                <path d="M196.41764,15.2735707 C196.41764,15.4494311 196.401362,15.6063973 196.370287,15.7473763 C196.337732,15.8869019 196.281501,16.0293343 196.201594,16.1717667 C196.120207,16.3156524 196.012185,16.4668051 195.879006,16.6266782 C195.747307,16.7865513 195.580094,16.9682252 195.377367,17.1746068 L193.113332,19.4259103 L195.85385,19.4259103 L195.85385,18.1759936 L196.438356,18.1759936 L196.438356,20 L192.216596,20 L192.216596,19.4084696 L194.744029,16.8853819 C194.874248,16.7574835 194.997068,16.6324918 195.115449,16.5060467 C195.23383,16.3766949 195.338893,16.2487964 195.430638,16.1194446 C195.523863,15.9886393 195.597852,15.8520205 195.649643,15.7124949 C195.704394,15.5729693 195.72955,15.4261768 195.72955,15.2735707 C195.72955,14.8797016 195.597852,14.5846631 195.334454,14.3870018 C195.071056,14.1849804 194.744029,14.0846964 194.356332,14.0846964 C193.811779,14.0846964 193.400406,14.2329423 193.12221,14.5294342 C192.844015,14.8259261 192.704918,15.2546766 192.704918,15.8156857 L192.073059,15.8156857 C192.073059,15.0962569 192.268388,14.5308876 192.659045,14.123938 C193.052662,13.7169883 193.616451,13.5135135 194.356332,13.5135135 C194.636007,13.5135135 194.897924,13.5527551 195.146524,13.6326916 C195.393644,13.7126282 195.611169,13.8288995 195.802059,13.975692 C195.992948,14.1268447 196.142404,14.3114255 196.253386,14.5279808 C196.362888,14.7445362 196.41764,14.9930661 196.41764,15.2735707" id="Fill-13"></path>
                <path d="M201.2158,15.3678508 C201.2158,14.9201502 201.075839,14.5980422 200.794445,14.3970941 C200.513051,14.196146 200.13884,14.095672 199.670341,14.095672 L198.208857,14.095672 L198.208857,16.638552 L199.670341,16.638552 C200.13884,16.638552 200.513051,16.5395555 200.794445,16.3386074 C201.075839,16.1391369 201.2158,15.8155513 201.2158,15.3678508 M201.894977,15.3678508 C201.894977,15.994336 201.699032,16.4582897 201.308616,16.7641446 C200.921146,17.0685218 200.374563,17.2207105 199.670341,17.2207105 L198.208857,17.2207105 L198.208857,20 L197.52968,20 L197.52968,13.5135135 L199.660028,13.5135135 C200.370143,13.5135135 200.921146,13.6701348 201.308616,13.9804223 C201.699032,14.2892323 201.894977,14.7517084 201.894977,15.3678508" id="Fill-14"></path>
                <path d="M212.808219,19.1103946 C212.617228,19.3801714 212.35534,19.5973088 212.022553,19.7578589 C211.691213,19.918409 211.294762,20 210.837542,20 C210.484498,20 210.158946,19.9460446 209.863778,19.8407659 C209.570057,19.7341712 209.31685,19.584149 209.107049,19.3946472 C208.898696,19.2038295 208.736643,18.9774802 208.617997,18.7155993 C208.500798,18.4524025 208.442922,18.160254 208.442922,17.8391538 C208.442922,17.5259496 208.497905,17.236433 208.603528,16.9706042 C208.710599,16.7034594 208.862523,16.4744781 209.060749,16.2849764 C209.258974,16.0941587 209.502053,15.9454525 209.788539,15.8375417 C210.075025,15.729631 210.39479,15.6756757 210.74494,15.6756757 C210.883842,15.6756757 211.028532,15.6901515 211.173222,15.7204191 C211.319359,15.7493708 211.456815,15.7927983 211.585589,15.8546495 C211.71581,15.9151848 211.833009,15.9875639 211.937185,16.070471 C212.041362,16.1560099 212.118048,16.2560247 212.171583,16.3705154 L212.171583,15.7730585 L212.7706,15.7730585 L212.7706,17.4285667 L212.171583,17.4285667 C212.171583,17.2456449 212.133964,17.0785149 212.060172,16.9284927 C211.989274,16.7784705 211.887991,16.6468721 211.762111,16.5389614 C211.634783,16.4297347 211.484306,16.3428797 211.309231,16.2849764 C211.134156,16.2244411 210.946059,16.1928575 210.74494,16.1928575 C210.472923,16.1928575 210.235631,16.234969 210.033065,16.321824 C209.829052,16.4060469 209.659765,16.5231695 209.523757,16.6705598 C209.389195,16.81795 209.283571,16.9916599 209.215567,17.1903736 C209.144669,17.3877712 209.109943,17.6049086 209.109943,17.8417858 C209.109943,18.077347 209.150456,18.2944844 209.228589,18.493198 C209.308168,18.6932276 209.42392,18.8643056 209.575845,19.0090638 C209.724876,19.1525061 209.907185,19.2669968 210.119879,19.3538517 C210.332574,19.4393907 210.569865,19.4815022 210.837542,19.4815022 C211.174669,19.4815022 211.475624,19.4196509 211.737513,19.3012124 C211.999402,19.1788258 212.201968,19.0195917 212.340871,18.8182461 L212.808219,19.1103946 Z" id="Fill-15"></path>
                <path d="M216.96184,16.37506 C216.729136,16.2632124 216.452976,16.2066148 216.131957,16.2066148 C215.868413,16.2066148 215.632905,16.2605173 215.425435,16.3696698 C215.217964,16.4774747 215.041333,16.6216637 214.896945,16.7968467 C214.752557,16.9733772 214.641812,17.176859 214.564711,17.4032493 C214.487611,17.6309872 214.449761,17.8654628 214.449761,18.1066763 L214.449761,19.4690608 L215.44506,19.4690608 L215.44506,20 L212.808219,20 L212.808219,19.4690608 L213.803518,19.4690608 L213.803518,16.3063344 L212.808219,16.3063344 L212.808219,15.7767428 L214.449761,15.7767428 L214.449761,16.8372735 C214.744146,16.0637733 215.304877,15.6756757 216.131957,15.6756757 C216.354848,15.6756757 216.549702,15.6904989 216.715118,15.7187976 C216.879132,15.7444013 217.033333,15.7929135 217.173516,15.8643343 L216.96184,16.37506 Z" id="Fill-16"></path>
                <path d="M222.630137,15.6756757 L220.412158,21.3845977 C220.298315,21.7028904 220.136056,21.9136322 219.927997,22.0110094 C219.719939,22.1127468 219.490944,22.1621622 219.237087,22.1621622 C218.95575,22.1621622 218.674414,22.1040265 218.393077,21.9892086 L218.512155,21.4078519 C218.649552,21.4732546 218.78564,21.5197631 218.916494,21.5488309 C219.048657,21.5764454 219.154649,21.5895259 219.237087,21.5895259 C219.437294,21.5895259 219.573382,21.5357504 219.649278,21.4281994 C219.722556,21.3221018 219.787983,21.1942034 219.844251,21.0474108 L220.095491,20.3585032 L218.26484,15.6756757 L218.977996,15.6756757 L220.456648,19.6579685 L221.907822,15.6756757 L222.630137,15.6756757 Z" id="Fill-17"></path>
                <path d="M227.409182,16.9874132 C227.409182,16.7330127 227.373906,16.4946031 227.303356,16.2721843 C227.231336,16.0483119 227.125511,15.8564212 226.98441,15.6936049 C226.84184,15.5307885 226.666934,15.4014077 226.461163,15.3083698 C226.256861,15.2124244 226.018754,15.1659055 225.748311,15.1659055 C225.491097,15.1659055 225.25152,15.2124244 225.02958,15.3083698 C224.806171,15.4014077 224.59599,15.5555017 224.399038,15.7662907 L224.399038,18.2085357 C224.59599,18.417871 224.806171,18.5719651 225.02958,18.6620955 C225.25152,18.7536797 225.491097,18.798745 225.748311,18.798745 C226.018754,18.798745 226.256861,18.752226 226.461163,18.6562807 C226.666934,18.561789 226.84184,18.4338619 226.98441,18.2710456 C227.125511,18.1082293 227.231336,17.9177923 227.303356,17.6968273 C227.373906,17.477316 227.409182,17.2418138 227.409182,16.9874132 M228.086758,16.9845058 C228.086758,17.3392128 228.030906,17.661938 227.919201,17.9526815 C227.806027,18.2419712 227.648759,18.4920106 227.444457,18.7027996 C227.243095,18.9121349 226.999108,19.076405 226.712498,19.1956098 C226.425887,19.3119072 226.104002,19.3715096 225.748311,19.3715096 C225.504325,19.3715096 225.267688,19.3264443 225.038399,19.2377676 C224.809111,19.1505445 224.59599,19.01971 224.399038,18.8467176 L224.399038,21.0810811 L223.721461,21.0810811 L223.721461,14.7021697 L224.399038,14.7021697 L224.399038,15.1281088 C224.81793,14.7719481 225.266218,14.5945946 225.748311,14.5945946 C226.104002,14.5945946 226.425887,14.6527433 226.712498,14.7690407 C226.999108,14.8838843 227.243095,15.0481544 227.444457,15.2618508 C227.648759,15.4740935 227.806027,15.7299478 227.919201,16.0250524 C228.030906,16.3187033 228.086758,16.6385211 228.086758,16.9845058" id="Fill-18"></path>
                <path d="M233.543379,18.4375511 C233.493773,18.9152887 233.314642,19.2957363 233.007362,19.5759897 C232.701461,19.8591473 232.317017,20 231.856787,20 C231.604625,20 231.371754,19.9564373 231.16093,19.8664077 C230.951484,19.7807344 230.772353,19.6573067 230.624914,19.5019331 C230.476097,19.3451074 230.36035,19.1563357 230.279052,18.93707 C230.196376,18.7178044 230.156416,18.4782096 230.156416,18.2182854 L230.156416,15.9080101 L229.178082,15.9080101 L229.178082,15.3358866 L230.156416,15.3358866 L230.156416,13.5135135 L230.791644,13.5135135 L230.791644,15.3358866 L232.631186,15.3358866 L232.631186,15.9080101 L230.791644,15.9080101 L230.791644,18.2182854 C230.791644,18.3838237 230.816446,18.5391974 230.868808,18.6858585 C230.918414,18.8325196 230.988688,18.9603035 231.08101,19.0721144 C231.171954,19.1824733 231.282188,19.2695987 231.411714,19.3320386 C231.542618,19.3959305 231.690057,19.4293286 231.856787,19.4293286 C232.172334,19.4293286 232.43552,19.3247781 232.647722,19.1185813 C232.858546,18.9123845 232.981182,18.6451999 233.010118,18.3155755 L233.543379,18.4375511 Z" id="Fill-19"></path>
                <path d="M238.386837,17.8509977 C238.386837,17.6141205 238.352255,17.3969831 238.281761,17.1982695 C238.212597,17.0008718 238.108852,16.8258459 237.971854,16.6745077 C237.833527,16.5244855 237.667268,16.4060469 237.473077,16.321824 C237.276226,16.234969 237.058095,16.1928575 236.813361,16.1928575 C236.568628,16.1928575 236.349166,16.234969 236.152316,16.321824 C235.956795,16.4060469 235.793196,16.5244855 235.658859,16.6745077 C235.524521,16.8258459 235.422106,17.0008718 235.352942,17.1982695 C235.282448,17.3969831 235.247866,17.6141205 235.247866,17.8509977 C235.247866,18.0865589 235.282448,18.3036963 235.352942,18.5024099 C235.422106,18.7011235 235.524521,18.8722015 235.658859,19.0182757 C235.793196,19.161718 235.956795,19.2762086 236.152316,19.3591157 C236.349166,19.4407067 236.568628,19.4815022 236.813361,19.4815022 C237.058095,19.4815022 237.276226,19.4407067 237.473077,19.3591157 C237.667268,19.2762086 237.833527,19.161718 237.971854,19.0182757 C238.108852,18.8722015 238.212597,18.7011235 238.281761,18.5024099 C238.352255,18.3036963 238.386837,18.0865589 238.386837,17.8509977 M239,17.8483657 C239,18.1694659 238.949457,18.4629304 238.845712,18.7248112 C238.743296,18.9866921 238.594328,19.2117254 238.402798,19.3999112 C238.209937,19.5867809 237.979835,19.7341712 237.71116,19.8407659 C237.442486,19.9460446 237.143219,20 236.813361,20 C236.487494,20 236.190888,19.9460446 235.922213,19.8407659 C235.653538,19.7341712 235.423436,19.5867809 235.231906,19.3999112 C235.039045,19.2117254 234.891407,18.9866921 234.788992,18.7248112 C234.686576,18.4629304 234.634703,18.1694659 234.634703,17.8483657 C234.634703,17.5364774 234.686576,17.2443289 234.788992,16.9745522 C234.891407,16.7034594 235.039045,16.4744781 235.231906,16.2849764 C235.423436,16.0941587 235.653538,15.9454525 235.922213,15.8375417 C236.190888,15.729631 236.487494,15.6756757 236.813361,15.6756757 C237.143219,15.6756757 237.442486,15.729631 237.71116,15.8375417 C237.979835,15.9454525 238.209937,16.0941587 238.402798,16.2849764 C238.594328,16.4744781 238.743296,16.7034594 238.845712,16.9745522 C238.949457,17.2443289 239,17.5364774 239,17.8483657" id="Fill-20"></path>
                <path d="M190.313213,26.1791106 C190.241831,25.7302234 190.071612,25.3945452 189.801183,25.1733926 C189.530754,24.9522399 189.195807,24.8416636 188.799087,24.8416636 C188.595922,24.8416636 188.407857,24.8745732 188.234893,24.9377597 C188.063301,24.9996298 187.910927,25.0917767 187.777772,25.208935 C187.647362,25.3274096 187.536171,25.4682628 187.44557,25.6341273 C187.357715,25.7999918 187.30006,25.9829693 187.275351,26.1791106 L190.313213,26.1791106 Z M187.265742,26.6977663 C187.312415,27.134806 187.478516,27.4823316 187.765417,27.7416595 C188.050946,28.0009873 188.422957,28.1313094 188.882824,28.1313094 C189.204044,28.1313094 189.493691,28.0681229 189.746274,27.94175 C189.998857,27.8140606 190.186922,27.6560945 190.313213,27.4678514 L190.755234,27.7587725 C190.541087,28.0496935 190.284386,28.2695298 189.98513,28.4222304 C189.687246,28.5722983 189.317981,28.6486486 188.882824,28.6486486 C188.550622,28.6486486 188.244502,28.5973096 187.968582,28.4906825 C187.69129,28.3840553 187.452434,28.2353038 187.252015,28.0457444 C187.047477,27.8548686 186.892358,27.6297668 186.782539,27.3651734 C186.671348,27.1032128 186.616438,26.809659 186.616438,26.4884611 C186.616438,26.1764778 186.665857,25.8881896 186.766066,25.6235962 C186.864903,25.3603192 187.010413,25.1312683 187.198478,24.9377597 C187.387915,24.7442511 187.618535,24.5928668 187.888964,24.4849233 C188.160765,24.3782961 188.462767,24.3243243 188.799087,24.3243243 C189.165607,24.3243243 189.484081,24.3835616 189.760001,24.5020363 C190.033175,24.6178782 190.262422,24.7824263 190.444996,24.9917315 C190.62757,25.1997203 190.76347,25.4472006 190.851325,25.7354889 C190.937808,26.02641 190.981735,26.3462915 190.981735,26.6977663 L187.265742,26.6977663 Z" id="Fill-21"></path>
                <polygon id="Fill-22" points="196.438356 28.6486486 194.712231 28.6486486 194.712231 28.0884458 195.080116 28.0884458 194.255041 26.8341986 193.439297 28.0884458 193.776525 28.0884458 193.776525 28.6486486 192.073059 28.6486486 192.073059 28.0884458 192.722189 28.0884458 193.869829 26.4547509 192.767508 24.8955656 192.162365 24.8955656 192.162365 24.3243243 193.879159 24.3243243 193.879159 24.8955656 193.493947 24.8955656 194.255041 26.0739233 195.025466 24.8955656 194.605598 24.8955656 194.605598 24.3243243 196.341053 24.3243243 196.341053 24.8955656 195.751905 24.8955656 194.649584 26.4547509 195.797224 28.0884458 196.438356 28.0884458"></polygon>
                <path d="M201.894977,27.7587725 C201.703986,28.0299478 201.442098,28.2471513 201.109311,28.4077502 C200.77797,28.5683492 200.38152,28.6486486 199.9243,28.6486486 C199.571256,28.6486486 199.245704,28.5973096 198.950536,28.4906825 C198.656815,28.3840553 198.403608,28.2353038 198.193807,28.0457444 C197.985454,27.8548686 197.823401,27.6284504 197.704755,27.3651734 C197.587556,27.1032128 197.52968,26.809659 197.52968,26.4884611 C197.52968,26.1764778 197.584663,25.8855568 197.691733,25.6183307 C197.797357,25.3524209 197.949281,25.1220536 198.147507,24.9324941 C198.345732,24.7416183 198.588811,24.5928668 198.876744,24.4849233 C199.16323,24.3782961 199.482995,24.3243243 199.831698,24.3243243 C199.972047,24.3243243 200.11529,24.3388046 200.25998,24.3690814 C200.406117,24.3967255 200.543573,24.442799 200.673794,24.5033527 C200.804015,24.5639064 200.919767,24.6363075 201.023943,24.7205562 C201.12812,24.8048048 201.204806,24.9048501 201.258341,25.0193755 L201.258341,24.4217368 L201.857358,24.4217368 L201.857358,26.077749 L201.258341,26.077749 C201.258341,25.8947715 201.220722,25.7275906 201.148377,25.5775227 C201.076032,25.4274549 200.974749,25.2971327 200.848869,25.1878728 C200.721541,25.0786129 200.572511,24.9930478 200.395989,24.9324941 C200.222361,24.8732568 200.032817,24.8416636 199.831698,24.8416636 C199.561128,24.8416636 199.322389,24.8851043 199.119823,24.9706693 C198.91581,25.0549179 198.746523,25.1720762 198.610515,25.3195113 C198.474506,25.4682628 198.371776,25.6407092 198.302325,25.8381669 C198.231427,26.0382574 198.196701,26.2541446 198.196701,26.4910938 C198.196701,26.7267267 198.237214,26.9439302 198.316794,27.1427043 C198.396373,27.3427948 198.510678,27.5139249 198.662603,27.6587272 C198.813081,27.8022132 198.993943,27.9167387 199.206637,28.0036201 C199.419332,28.0878687 199.65807,28.1313094 199.9243,28.1313094 C200.262874,28.1313094 200.562382,28.0707557 200.825718,27.9496483 C201.087607,27.8298573 201.288726,27.6692583 201.427629,27.466535 L201.894977,27.7587725 Z" id="Fill-23"></path>
                <path d="M207.351598,28.6486486 L206.624827,28.6486486 L206.624827,25.7941807 C206.624827,25.3817537 206.531452,25.0594989 206.343145,24.831851 C206.153281,24.6027249 205.849812,24.4889009 205.428066,24.4889009 C205.165059,24.4889009 204.92384,24.546552 204.709076,24.6633324 C204.494313,24.7786346 204.313787,24.9323708 204.164387,25.1274976 C204.01343,25.3196679 203.899823,25.5414028 203.820454,25.7912242 C203.744198,26.0410456 203.703735,26.3026928 203.703735,26.5732095 L203.703735,28.6486486 L202.986301,28.6486486 L202.986301,22.1621622 L203.703735,22.1621622 L203.703735,25.1792358 C204.05078,24.33073 204.663945,23.9064771 205.552567,23.9064771 C206.75244,23.9064771 207.351598,24.5347262 207.351598,25.7912242 L207.351598,28.6486486 Z" id="Fill-24"></path>
                <path d="M209.199188,28.1314668 C209.480725,28.1314668 209.734402,28.0933033 209.960219,28.0182922 C210.184569,27.9419651 210.376659,27.8498462 210.532092,27.7366715 C210.691923,27.6248129 210.813629,27.5050583 210.898677,27.3787238 C210.986657,27.2523893 211.030647,27.1365827 211.030647,27.0339359 L211.030647,26.6444046 C210.812163,26.6154529 210.599543,26.5983451 210.397188,26.5943972 C210.196299,26.5930812 210.021805,26.5904492 209.873704,26.5904492 C209.631758,26.5904492 209.397144,26.6062411 209.171327,26.6351927 C208.946977,26.6654603 208.750487,26.7128358 208.583325,26.779951 C208.417628,26.8457502 208.281258,26.9326052 208.181547,27.0378839 C208.077437,27.1444786 208.026115,27.2760771 208.026115,27.4326792 C208.026115,27.6063891 208.122893,27.7669392 208.312051,27.9116975 C208.498277,28.0577717 208.795944,28.1314668 209.199188,28.1314668 M207.351598,27.4326792 C207.351598,27.1721143 207.424915,26.9536609 207.568617,26.779951 C207.712318,26.6049251 207.902942,26.4654307 208.136091,26.362784 C208.372171,26.2614532 208.640512,26.1877581 208.944044,26.1416986 C209.247577,26.0956392 209.556975,26.0745834 209.872238,26.0745834 C209.993944,26.0745834 210.10392,26.0758994 210.200699,26.0772154 C210.297477,26.0798473 210.389856,26.0851113 210.476371,26.0903752 C210.564351,26.0956392 210.650865,26.104851 210.740312,26.112747 C210.828292,26.1219588 210.926537,26.1311707 211.030647,26.1430146 L211.030647,25.8495501 C211.030647,25.6482045 210.982258,25.4837065 210.884013,25.35474 C210.788701,25.2257736 210.669928,25.1231268 210.526226,25.0467997 C210.386924,24.9744206 210.238823,24.9204652 210.084858,24.8888816 C209.929425,24.8586139 209.797455,24.8428221 209.688946,24.8428221 C209.348754,24.8428221 209.032025,24.8836176 208.743156,24.9678406 C208.45282,25.0494317 208.18448,25.1599743 207.935202,25.2994687 L207.628737,24.8428221 C207.904409,24.6914839 208.213807,24.5677814 208.558397,24.4703986 C208.90152,24.3743317 209.27837,24.3243243 209.688946,24.3243243 C209.93969,24.3243243 210.184569,24.354592 210.426515,24.4124953 C210.668461,24.4690826 210.88548,24.5572535 211.07757,24.6770081 C211.271127,24.7967627 211.426559,24.9533648 211.5424,25.1481305 C211.658241,25.3428962 211.716895,25.5771414 211.716895,25.8482341 L211.716895,28.5460019 L211.030647,28.5460019 L211.036513,27.8564261 C210.917739,27.9893405 210.784302,28.1051471 210.634735,28.2064779 C210.485169,28.3064927 210.32827,28.3880838 210.162574,28.452567 C209.998343,28.5144183 209.834113,28.5644257 209.668417,28.5973253 C209.505653,28.6328568 209.350221,28.6486486 209.20212,28.6486486 C208.593589,28.6486486 208.133158,28.5446859 207.820827,28.3341284 C207.508497,28.1248869 207.351598,27.8248425 207.351598,27.4326792" id="Fill-25"></path>
                <path d="M217.173516,28.6486486 L216.445188,28.6486486 L216.445188,26.0456966 C216.445188,25.6696098 216.353369,25.3757498 216.165062,25.1681607 C215.975199,24.9592236 215.671729,24.855429 215.249984,24.855429 C214.985421,24.855429 214.744201,24.9080003 214.530994,25.0144908 C214.316231,25.1196333 214.134149,25.2598234 213.984748,25.437757 C213.835348,25.6129945 213.721741,25.8151918 213.642372,26.0430006 C213.566116,26.2708095 213.524097,26.5094022 213.524097,26.7560828 L213.524097,28.6486486 L212.808219,28.6486486 L212.808219,24.4240749 L213.524097,24.4240749 L213.524097,25.4849363 C213.872698,24.711195 214.485863,24.3243243 215.374485,24.3243243 C216.572801,24.3243243 217.173516,24.8972164 217.173516,26.0430006 L217.173516,28.6486486 Z" id="Fill-26"></path>
                <path d="M221.943889,24.3972544 C221.748866,24.1884742 221.537713,24.038324 221.306031,23.9468039 C221.074349,23.8538539 220.830937,23.8066638 220.574327,23.8066638 C220.305987,23.8066638 220.068439,23.8538539 219.863152,23.9468039 C219.657864,24.038324 219.489235,24.1655942 219.352865,24.3257543 C219.220894,24.4859145 219.116784,24.6746747 219.0464,24.8948949 C218.976016,25.1136851 218.939357,25.3482053 218.939357,25.5984556 C218.939357,26.1103961 219.077193,26.5179465 219.348466,26.8225368 C219.621205,27.1256971 220.030315,27.2787073 220.574327,27.2787073 C220.830937,27.2787073 221.074349,27.2300872 221.306031,27.1371371 C221.537713,27.042757 221.748866,26.8897469 221.943889,26.6781067 L221.943889,24.3972544 Z M222.630137,27.7834978 C222.630137,28.0923781 222.574416,28.3655084 222.46444,28.6057486 C222.357398,28.8459888 222.206364,29.0504791 222.009875,29.2163592 C221.813385,29.3822394 221.584636,29.5109395 221.319228,29.5995996 C221.055287,29.6868297 220.759086,29.7297297 220.435025,29.7297297 C219.97606,29.7297297 219.588946,29.6482196 219.269284,29.4823395 C218.948155,29.3135993 218.671017,29.0747891 218.436402,28.7601888 L218.911497,28.4055484 C219.052265,28.6114686 219.256087,28.7859288 219.521494,28.9289289 C219.786902,29.0704991 220.090435,29.1391391 220.432092,29.1391391 C220.898388,29.1391391 221.26644,29.024739 221.537713,28.7959388 C221.80752,28.5671386 221.943889,28.2368082 221.943889,27.8035178 L221.943889,27.3216073 C221.543578,27.6676677 221.087546,27.8406978 220.572861,27.8406978 C219.85582,27.8406978 219.289812,27.6419276 218.880703,27.2400972 C218.470128,26.8396968 218.26484,26.2905763 218.26484,25.5955956 C218.26484,25.2566853 218.317628,24.9435149 218.426138,24.6560847 C218.533181,24.3686544 218.684214,24.1212641 218.88217,23.9096239 C219.081592,23.7008437 219.323538,23.5349635 219.609475,23.4177034 C219.895411,23.3018733 220.21654,23.2432432 220.572861,23.2432432 C220.823605,23.2432432 221.065551,23.2875733 221.301632,23.3733734 C221.536247,23.4577435 221.748866,23.5864436 221.943889,23.7594738 L221.943889,23.3504934 L222.630137,23.3504934 L222.630137,27.7834978 Z" id="Fill-27"></path>
                <path d="M227.418236,26.1791106 C227.346854,25.7302234 227.176635,25.3945452 226.904833,25.1733926 C226.635777,24.9522399 226.30083,24.8416636 225.902737,24.8416636 C225.700945,24.8416636 225.51288,24.8745732 225.339916,24.9377597 C225.168324,24.9996298 225.01595,25.0917767 224.882795,25.208935 C224.752385,25.3274096 224.639821,25.4682628 224.550593,25.6341273 C224.462738,25.7999918 224.405083,25.9829693 224.380374,26.1791106 L227.418236,26.1791106 Z M224.370765,26.6977663 C224.417438,27.134806 224.583539,27.4823316 224.87044,27.7416595 C225.155969,28.0009873 225.52798,28.1313094 225.986474,28.1313094 C226.309066,28.1313094 226.597341,28.0681229 226.851297,27.94175 C227.10388,27.8140606 227.290572,27.6560945 227.418236,27.4678514 L227.860257,27.7587725 C227.644737,28.0496935 227.389409,28.2695298 227.090152,28.4222304 C226.792269,28.5722983 226.423003,28.6486486 225.986474,28.6486486 C225.654272,28.6486486 225.349525,28.5973096 225.072232,28.4906825 C224.796313,28.3840553 224.556084,28.2353038 224.355665,28.0457444 C224.153873,27.8548686 223.997381,27.6297668 223.886189,27.3651734 C223.776371,27.1032128 223.721461,26.809659 223.721461,26.4884611 C223.721461,26.1764778 223.77088,25.8881896 223.869717,25.6235962 C223.969926,25.3603192 224.115436,25.1312683 224.303501,24.9377597 C224.494311,24.7442511 224.723558,24.5928668 224.993986,24.4849233 C225.265788,24.3782961 225.56779,24.3243243 225.902737,24.3243243 C226.269257,24.3243243 226.589104,24.3835616 226.863651,24.5020363 C227.138198,24.6178782 227.366072,24.7824263 227.550019,24.9917315 C227.732592,25.1997203 227.86712,25.4472006 227.956348,25.7354889 C228.04283,26.02641 228.086758,26.3462915 228.086758,26.6977663 L224.370765,26.6977663 Z" id="Fill-28"></path>
                <polygon id="Fill-29" points="26.1998141 7.02531976 26.1998141 0.540540541 -1.0658141e-14 0.540540541 -1.0658141e-14 26.4881938 6.57720912 26.4881938 6.57720912 32.972973 13.1185556 32.972973 13.1185556 26.4881938 6.58294715 26.4881938 6.58294715 19.9991464 13.1185556 19.9991464 13.1185556 13.5129444 6.58294715 13.5129444 6.58294715 7.02816521 26.1983795 7.02816521 26.1983795 13.5129444 32.739726 13.5129444 32.739726 7.02531976"></polygon>
                <polygon id="Fill-30" points="19.6438356 20 26.1917808 20 26.1917808 13.5135135 19.6438356 13.5135135"></polygon>
                <polygon id="Fill-31" points="13.0958904 26.4864865 19.6438356 26.4864865 19.6438356 20 13.0958904 20"></polygon>
                <polygon id="Fill-32" points="26.1917808 26.4864865 32.739726 26.4864865 32.739726 20 26.1917808 20"></polygon>
                <polygon id="Fill-33" points="19.6438356 32.972973 26.1917808 32.972973 26.1917808 26.4864865 19.6438356 26.4864865"></polygon>
                <polygon id="Fill-34" points="13.0958904 39.4594595 19.6438356 39.4594595 19.6438356 32.972973 13.0958904 32.972973"></polygon>
            </g>
        </g>
    </g>
</svg>